<svg xmlns="http://www.w3.org/2000/svg" viewBox="0 0 128 128" shape-rendering="crispEdges">
  <rect width="128" height="128" fill="#0b1420"/>
  <rect x="28" y="14" width="72" height="18" fill="#7eb8d1"/>
  <rect x="20" y="32" width="88" height="56" fill="#4c788c"/>
  <rect x="12" y="48" width="16" height="34" fill="#4c788c"/>
  <rect x="100" y="48" width="16" height="34" fill="#4c788c"/>
  <rect x="28" y="88" width="20" height="24" fill="#3b6174"/>
  <rect x="80" y="88" width="20" height="24" fill="#3b6174"/>
  <rect x="34" y="42" width="18" height="18" fill="#dff8ff"/>
  <rect x="76" y="42" width="18" height="18" fill="#dff8ff"/>
  <rect x="40" y="48" width="8" height="8" fill="#09111b"/>
  <rect x="82" y="48" width="8" height="8" fill="#09111b"/>
  <rect x="48" y="68" width="32" height="10" fill="#122333"/>
  <rect x="0" y="12" width="12" height="12" fill="#aef7ff"/>
  <rect x="8" y="18" width="8" height="20" fill="#58d8ff"/>
  <rect x="108" y="8" width="12" height="12" fill="#aef7ff"/>
  <rect x="112" y="18" width="8" height="22" fill="#58d8ff"/>
</svg>
