<svg xmlns="http://www.w3.org/2000/svg" viewBox="0 0 96 96">
  <defs>
    <filter id="s" x="-20%" y="-20%" width="140%" height="140%">
      <feDropShadow dx="0" dy="2" stdDeviation="2" flood-color="#5b4635" flood-opacity="0.25"/>
    </filter>
  </defs>
  <g filter="url(#s)">
    <ellipse cx="48" cy="55" rx="24" ry="20" fill="#d6a679"/>
    <ellipse cx="48" cy="60" rx="16" ry="12" fill="#f4e8da"/>
    <circle cx="30" cy="33" r="10" fill="#c98f63"/>
    <circle cx="66" cy="33" r="10" fill="#c98f63"/>
    <circle cx="30" cy="33" r="5" fill="#f2b2bf"/>
    <circle cx="66" cy="33" r="5" fill="#f2b2bf"/>
    <ellipse cx="48" cy="40" rx="19" ry="16" fill="#d6a679"/>
    <circle cx="41" cy="39" r="3.8" fill="#2d2a28"/>
    <circle cx="55" cy="39" r="3.8" fill="#2d2a28"/>
    <ellipse cx="48" cy="47" rx="4.6" ry="3.4" fill="#7b5440"/>
    <circle cx="48" cy="49" r="2.2" fill="#f09cb0"/>
    <path d="M45 53c1.8 2 4.2 2 6 0" fill="none" stroke="#7b5440" stroke-width="2" stroke-linecap="round"/>
    <ellipse cx="33" cy="60" rx="4" ry="6" fill="#d6a679"/>
    <ellipse cx="63" cy="60" rx="4" ry="6" fill="#d6a679"/>
    <path d="M72 58c9 1 14 7 13 15" fill="none" stroke="#c98f63" stroke-width="4" stroke-linecap="round"/>
  </g>
</svg>
